<svg xmlns="http://www.w3.org/2000/svg" version="1.1" xmlns:xlink="http://www.w3.org/1999/xlink" width="512" height="512" x="0" y="0" viewBox="0 0 512 512" style="enable-background:new 0 0 512 512" xml:space="preserve" class=""><g><path fill="#1a6fb0" d="M16 328h480v80H16z" opacity="1" data-original="#1a6fb0"></path><circle cx="104" cy="408" r="48" fill="#57565c" opacity="1" data-original="#57565c"></circle><circle cx="392" cy="408" r="48" fill="#57565c" opacity="1" data-original="#57565c"></circle><g fill="#e0e0e2"><circle cx="392" cy="408" r="16" fill="#e0e0e2" opacity="1" data-original="#e0e0e2" class=""></circle><circle cx="104" cy="408" r="16" fill="#e0e0e2" opacity="1" data-original="#e0e0e2" class=""></circle><path d="M496 320v8H16V224a48 48 0 0 1 48-48h348.81a48 48 0 0 1 43.86 28.51zM16 352h16a8 8 0 0 1 8 8v8a8 8 0 0 1-8 8H16v-24zM472 352h24v24h-24a8 8 0 0 1-8-8v-8a8 8 0 0 1 8-8z" fill="#e0e0e2" opacity="1" data-original="#e0e0e2" class=""></path></g><path fill="#00ccb3" d="M136 208h192v80H136zM457.86 208H360v80h125.1M19.1 207H104v81H16" opacity="1" data-original="#00ccb3" class=""></path><path fill="#ffda44" d="M464 152H40v-24h408z" opacity="1" data-original="#ffda44"></path><path fill="#ff9811" d="M112 128H72l-8-48a48 48 0 0 1 48 48zM152 80h80v48h-80z" opacity="1" data-original="#ff9811"></path><path fill="#e0e0e2" d="M176 56h32v24h-32z" opacity="1" data-original="#e0e0e2" class=""></path><path fill="#ff9811" d="M232 80h80v48h-80z" opacity="1" data-original="#ff9811"></path><path fill="#e0e0e2" d="M256 56h32v24h-32z" opacity="1" data-original="#e0e0e2" class=""></path><path d="M392 384a24 24 0 1 0 24 24 24.027 24.027 0 0 0-24-24zm0 32a8 8 0 1 1 8-8 8.009 8.009 0 0 1-8 8zM104 384a24 24 0 1 0 24 24 24.027 24.027 0 0 0-24-24zm0 32a8 8 0 1 1 8-8 8.009 8.009 0 0 1-8 8z" fill="#000000" opacity="1" data-original="#000000" class=""></path><path d="m503.57 317.42-38.07-111.8v-.01l-1.26-3.68c-.08-.23-.16-.45-.26-.67A56.044 56.044 0 0 0 412.81 168H360v-8h104a8.009 8.009 0 0 0 6.66-12.44l-16-24A8.033 8.033 0 0 0 448 120H320V80a8 8 0 0 0-8-8h-16V56a8 8 0 0 0-8-8h-32a8 8 0 0 0-8 8v16h-32V56a8 8 0 0 0-8-8h-32a8 8 0 0 0-8 8v16h-16a8 8 0 0 0-8 8v40h-24.58A56.086 56.086 0 0 0 64 72a8 8 0 0 0-7.89 9.31L62.56 120H40a8 8 0 0 0-8 8v24a8 8 0 0 0 8 8h72v8H64a56.092 56.092 0 0 0-52.15 35.63 6.691 6.691 0 0 0-.39 1A55.569 55.569 0 0 0 8 224v184a8 8 0 0 0 8 8h32.58a55.914 55.914 0 0 0 16.28 32H16a8 8 0 0 0 0 16h448a8 8 0 0 0 0-16h-32.86a55.914 55.914 0 0 0 16.28-32H496a8 8 0 0 0 8-8v-88a7.8 7.8 0 0 0-.43-2.58zM473.93 280H368v-64h84.13zM264 64h16v8h-16zm-24 24h64v32h-64zm-56-24h16v8h-16zm-24 24h64v32h-64zm-56.8 32H78.78l-5.14-30.83A40.154 40.154 0 0 1 103.2 120zM48 144v-8h395.72l5.33 8zm296 16v8H128v-8zM24 224a40.44 40.44 0 0 1 1.03-9H96v65H24zm0 72h80a8 8 0 0 0 8-8v-81a8 8 0 0 0-8-8H32.81A39.928 39.928 0 0 1 64 184h348.81a40.023 40.023 0 0 1 31.99 16H360a8 8 0 0 0-8 8v80a8 8 0 0 0 8 8h119.38l8.17 24H24zm0 64h8l.01 8H24zm80 88a40 40 0 1 1 40-40 40.04 40.04 0 0 1-40 40zm39.14 0a55.914 55.914 0 0 0 16.28-32h177.16a55.914 55.914 0 0 0 16.28 32zM392 448a40 40 0 1 1 40-40 40.04 40.04 0 0 1-40 40zm96-80h-16v-8h16zm0-24h-16a16.021 16.021 0 0 0-16 16v8a16.021 16.021 0 0 0 16 16h16v16h-40.58a55.994 55.994 0 0 0-110.84 0H159.42a55.994 55.994 0 0 0-110.84 0H24v-16h8a16.021 16.021 0 0 0 16-16v-8a16.021 16.021 0 0 0-16-16h-8v-8h464z" fill="#000000" opacity="1" data-original="#000000" class=""></path><path d="M136 296h192a8 8 0 0 0 8-8v-80a8 8 0 0 0-8-8H136a8 8 0 0 0-8 8v80a8 8 0 0 0 8 8zm184-16h-80v-64h80zm-176-64h80v64h-80zM496 448h-8a8 8 0 0 0 0 16h8a8 8 0 0 0 0-16z" fill="#000000" opacity="1" data-original="#000000" class=""></path></g></svg>